<svg width="71" height="72" viewBox="0 0 71 72" fill="none" xmlns="http://www.w3.org/2000/svg">
<path d="M0.113132 71.1182L0.109378 35.8851C0.106353 28.9195 2.16921 22.1096 6.03703 16.3165C9.90485 10.5235 15.4039 6.00773 21.8385 3.34038C28.2731 0.673036 35.3543 -0.0260367 42.1862 1.33159C49.0182 2.68922 55.2941 6.04255 60.22 10.9674C65.1459 15.8923 68.5006 22.1675 69.8597 28.9991C71.2188 35.8308 70.5212 42.9121 67.8552 49.3473C65.1893 55.7825 60.6746 61.2825 54.8824 65.1515C49.0903 69.0206 42.2807 71.0849 35.3151 71.0834L0.113132 71.1182Z" fill="#1C7857"/>
<path fill-rule="evenodd" clip-rule="evenodd" d="M37.5152 20H19V56H29.561H37.5152C60.8283 56 60.8283 19.9999 37.5152 20ZM29.561 56C23.77 56 19.0756 51.1647 19.0756 45.2C19.0756 39.2353 23.77 34.4 29.561 34.4C35.3519 34.4 40.0463 39.2353 40.0463 45.2C40.0463 51.1647 35.3519 56 29.561 56Z" fill="white"/>
</svg>
