<svg width="100" height="100" viewBox="0 0 100 100" fill="none" xmlns="http://www.w3.org/2000/svg">
<g clip-path="url(#clip0_14681_33296)">
<path d="M19.1132 82.1185L19.1094 46.8853C19.1064 39.9198 21.1692 33.1098 25.0371 27.3168C28.9049 21.5237 34.4039 17.008 40.8385 14.3406C47.2731 11.6733 54.3543 10.9742 61.1863 12.3318C68.0182 13.6894 74.2941 17.0428 79.22 21.9676C84.146 26.8925 87.5006 33.1677 88.8597 39.9994C90.2188 46.8311 89.5212 53.9124 86.8553 60.3476C84.1893 66.7827 79.6747 72.2827 73.8825 76.1518C68.0903 80.0208 61.2807 82.0851 54.3152 82.0836L19.1132 82.1185Z" fill="#1C7857"/>
<path fill-rule="evenodd" clip-rule="evenodd" d="M56.5152 31H38V67H48.561H56.5152C79.8283 67 79.8283 30.9999 56.5152 31ZM48.561 67C42.77 67 38.0756 62.1647 38.0756 56.2C38.0756 50.2353 42.77 45.4 48.561 45.4C54.3519 45.4 59.0463 50.2353 59.0463 56.2C59.0463 62.1647 54.3519 67 48.561 67Z" fill="white"/>
<circle cx="79" cy="20" r="11" fill="#F08C43"/>
<path d="M75.9716 15.2727V24H74.9148V16.3807H74.8636L72.733 17.7955V16.7216L74.9148 15.2727H75.9716ZM81.4304 24.1193C80.8679 24.1193 80.3665 24.0227 79.9261 23.8295C79.4886 23.6364 79.1406 23.3679 78.8821 23.0241C78.6264 22.6776 78.4872 22.2756 78.4645 21.8182H79.5384C79.5611 22.0994 79.6577 22.3423 79.8281 22.5469C79.9986 22.7486 80.2216 22.9048 80.4972 23.0156C80.7727 23.1264 81.0781 23.1818 81.4134 23.1818C81.7884 23.1818 82.1207 23.1165 82.4105 22.9858C82.7003 22.8551 82.9276 22.6733 83.0923 22.4403C83.2571 22.2074 83.3395 21.9375 83.3395 21.6307C83.3395 21.3097 83.2599 21.027 83.1009 20.7827C82.9418 20.5355 82.7088 20.3423 82.402 20.2031C82.0952 20.0639 81.7202 19.9943 81.277 19.9943H80.5781V19.0568H81.277C81.6236 19.0568 81.9276 18.9943 82.1889 18.8693C82.4531 18.7443 82.6591 18.5682 82.8068 18.3409C82.9574 18.1136 83.0327 17.8466 83.0327 17.5398C83.0327 17.2443 82.9673 16.9872 82.8366 16.7685C82.706 16.5497 82.5213 16.3793 82.2827 16.2571C82.0469 16.1349 81.7685 16.0739 81.4474 16.0739C81.1463 16.0739 80.8622 16.1293 80.5952 16.2401C80.331 16.348 80.1151 16.5057 79.9474 16.7131C79.7798 16.9176 79.6889 17.1648 79.6747 17.4545H78.652C78.669 16.9972 78.8068 16.5966 79.0653 16.2528C79.3239 15.9062 79.6619 15.6364 80.0795 15.4432C80.5 15.25 80.9616 15.1534 81.4645 15.1534C82.0043 15.1534 82.4673 15.2628 82.8537 15.4815C83.2401 15.6974 83.5369 15.983 83.7443 16.3381C83.9517 16.6932 84.0554 17.0767 84.0554 17.4886C84.0554 17.9801 83.9261 18.3991 83.6676 18.7457C83.4119 19.0923 83.0639 19.3324 82.6236 19.4659V19.5341C83.1747 19.625 83.6051 19.8594 83.9148 20.2372C84.2244 20.6122 84.3793 21.0767 84.3793 21.6307C84.3793 22.1051 84.25 22.5312 83.9915 22.9091C83.7358 23.2841 83.3864 23.5795 82.9432 23.7955C82.5 24.0114 81.9957 24.1193 81.4304 24.1193Z" fill="white"/>
</g>
<defs>
<clipPath id="clip0_14681_33296">
<rect width="100" height="100" fill="white"/>
</clipPath>
</defs>
</svg>
