<svg width="24" height="24" viewBox="0 0 24 24" fill="none" xmlns="http://www.w3.org/2000/svg">
<path d="M12.0008 2.99978C7.17178 2.96138 2.97093 7.00333 3.00088 11.9998C2.91808 17.8091 8.71723 22.2573 14.3059 20.6997C24.3554 17.8034 22.5675 3.27058 12.0008 2.99978ZM17.2508 14.9648C16.9608 17.0148 15.9608 18.4698 14.8258 19.4848C14.6508 19.5498 14.4758 19.6098 14.2958 19.6598C14.1558 17.2848 13.0958 16.9198 12.0608 16.5598C10.7322 16.2238 9.99648 15.2911 9.96088 14.0197C9.89083 13.3948 9.82083 12.7448 9.14083 12.2898C8.43083 11.8198 7.81583 11.7748 7.27078 11.7298C6.62578 11.6798 6.15578 11.6448 5.71578 10.8748C4.81578 9.30478 5.90578 7.24978 7.28578 5.53978C8.61078 4.57478 10.2408 3.99978 12.0008 3.99978C12.8538 3.90343 14.0209 4.33853 14.2658 5.07983C14.5767 5.92198 13.1037 6.60718 12.7758 7.38978C12.4607 8.01978 12.6508 8.49478 12.7908 8.83978C12.9208 9.15978 12.9258 9.21978 12.8258 9.32478C12.5558 9.58978 12.1558 9.42478 11.5258 9.13478C10.8908 8.84478 10.1708 8.51478 9.42078 8.76478C7.72903 9.29893 8.01078 11.1957 9.50078 11.2498C9.94588 11.2458 10.8294 10.9813 11.1558 11.2348C11.1958 11.2698 11.2508 11.3348 11.2508 11.4998C11.3243 12.6153 12.6735 12.6982 13.6107 12.2248C14.4508 11.8048 14.5508 11.9048 15.3258 12.6747C16.081 13.5533 17.4843 13.5444 17.2508 14.9648Z" fill="#252A2F"/>
<path d="M4.5001 20.5L21.5 4.5" stroke="white" stroke-width="1.5"/>
<line x1="3.08787" y1="19.8516" x2="21.0879" y2="3.05161" stroke="#252A2F" stroke-width="1.5"/>
</svg>
