<svg width="24" height="24" viewBox="0 0 24 24" fill="none" xmlns="http://www.w3.org/2000/svg">
<path d="M12.0008 3.00027C7.17178 2.96187 2.97093 7.00382 3.00088 12.0003C2.91808 17.8096 8.71723 22.2578 14.3059 20.7002C24.3554 17.8039 22.5675 3.27107 12.0008 3.00027ZM17.2508 14.9653C16.9608 17.0153 15.9608 18.4703 14.8258 19.4853C14.6508 19.5503 14.4758 19.6103 14.2958 19.6603C14.1558 17.2853 13.0958 16.9203 12.0608 16.5603C10.7322 16.2243 9.99648 15.2916 9.96088 14.0202C9.89083 13.3953 9.82083 12.7453 9.14083 12.2903C8.43083 11.8203 7.81583 11.7753 7.27078 11.7303C6.62578 11.6803 6.15578 11.6453 5.71578 10.8753C4.81578 9.30527 5.90578 7.25027 7.28578 5.54027C8.61078 4.57527 10.2408 4.00027 12.0008 4.00027C12.8538 3.90392 14.0209 4.33902 14.2658 5.08032C14.5767 5.92247 13.1037 6.60767 12.7758 7.39027C12.4607 8.02027 12.6508 8.49527 12.7908 8.84027C12.9208 9.16027 12.9258 9.22027 12.8258 9.32527C12.5558 9.59027 12.1558 9.42527 11.5258 9.13527C10.8908 8.84527 10.1708 8.51527 9.42078 8.76527C7.72903 9.29942 8.01078 11.1962 9.50078 11.2503C9.94588 11.2463 10.8294 10.9818 11.1558 11.2353C11.1958 11.2703 11.2508 11.3353 11.2508 11.5003C11.3243 12.6158 12.6735 12.6987 13.6107 12.2253C14.4508 11.8053 14.5508 11.9053 15.3258 12.6752C16.081 13.5538 17.4843 13.5449 17.2508 14.9653Z" fill="#252A2F"/>
</svg>
