<svg width="24" height="24" viewBox="0 0 24 24" fill="none" xmlns="http://www.w3.org/2000/svg">
    <path d="M21.4393 11.0499L12.2493 20.2399C11.1235 21.3658 9.5965 21.9983 8.00431 21.9983C6.41213 21.9983 4.88516 21.3658 3.75931 20.2399C2.63347 19.1141 2.00098 17.5871 2.00098 15.9949C2.00098 14.4027 2.63347 12.8758 3.75931 11.7499L12.9493 2.55992C13.6999 1.80936 14.7179 1.3877 15.7793 1.3877C16.8408 1.3877 17.8588 1.80936 18.6093 2.55992C19.3599 3.31048 19.7815 4.32846 19.7815 5.38992C19.7815 6.45138 19.3599 7.46936 18.6093 8.21992L9.40931 17.4099C9.03403 17.7852 8.52504 17.996 7.99431 17.996C7.46359 17.996 6.95459 17.7852 6.57931 17.4099C6.20403 17.0346 5.9932 16.5256 5.9932 15.9949C5.9932 15.4642 6.20403 14.9552 6.57931 14.5799L15.0693 6.09992" stroke="#707A83" stroke-width="1.71429" stroke-linecap="round" stroke-linejoin="round"/>
</svg>
